<mxfile host="app.diagrams.net" agent="Mozilla/5.0 (X11; Linux x86_64; rv:138.0) Gecko/20100101 Firefox/138.0" version="27.0.1">
  <diagram name="Page-1" id="nGoVxr1ijwMCYuzCthnh">
    <mxGraphModel dx="931" dy="1273" grid="1" gridSize="10" guides="1" tooltips="1" connect="1" arrows="1" fold="1" page="1" pageScale="1" pageWidth="850" pageHeight="1100" math="0" shadow="0">
      <root>
        <mxCell id="0" />
        <mxCell id="1" parent="0" />
        <mxCell id="sNFZiSl1XPzose1U_CJ6-5" value="" style="edgeStyle=none;curved=1;rounded=0;orthogonalLoop=1;jettySize=auto;html=1;fontSize=12;startSize=8;endSize=8;" edge="1" parent="1" source="NCllpPrKkhF6VFkXS9k5-2" target="sNFZiSl1XPzose1U_CJ6-2">
          <mxGeometry relative="1" as="geometry" />
        </mxCell>
        <mxCell id="NCllpPrKkhF6VFkXS9k5-2" value="&lt;div&gt;Prompt User:&lt;/div&gt;" style="rounded=1;whiteSpace=wrap;html=1;" parent="1" vertex="1">
          <mxGeometry x="350" y="90" width="120" height="60" as="geometry" />
        </mxCell>
        <mxCell id="sNFZiSl1XPzose1U_CJ6-3" value="" style="edgeStyle=none;curved=1;rounded=0;orthogonalLoop=1;jettySize=auto;html=1;fontSize=12;startSize=8;endSize=8;" edge="1" parent="1" source="sNFZiSl1XPzose1U_CJ6-2" target="NCllpPrKkhF6VFkXS9k5-2">
          <mxGeometry relative="1" as="geometry" />
        </mxCell>
        <mxCell id="sNFZiSl1XPzose1U_CJ6-17" value="" style="edgeStyle=none;curved=1;rounded=0;orthogonalLoop=1;jettySize=auto;html=1;fontSize=12;startSize=8;endSize=8;" edge="1" parent="1" source="sNFZiSl1XPzose1U_CJ6-2" target="sNFZiSl1XPzose1U_CJ6-16">
          <mxGeometry relative="1" as="geometry" />
        </mxCell>
        <mxCell id="sNFZiSl1XPzose1U_CJ6-2" value="What would you like?" style="shape=parallelogram;perimeter=parallelogramPerimeter;whiteSpace=wrap;html=1;fixedSize=1;" vertex="1" parent="1">
          <mxGeometry x="150" y="210" width="190" height="60" as="geometry" />
        </mxCell>
        <mxCell id="sNFZiSl1XPzose1U_CJ6-7" style="edgeStyle=none;curved=1;rounded=0;orthogonalLoop=1;jettySize=auto;html=1;fontSize=12;startSize=8;endSize=8;" edge="1" parent="1" source="sNFZiSl1XPzose1U_CJ6-6" target="NCllpPrKkhF6VFkXS9k5-2">
          <mxGeometry relative="1" as="geometry" />
        </mxCell>
        <mxCell id="sNFZiSl1XPzose1U_CJ6-8" style="edgeStyle=none;curved=1;rounded=0;orthogonalLoop=1;jettySize=auto;html=1;fontSize=12;startSize=8;endSize=8;" edge="1" parent="1" source="sNFZiSl1XPzose1U_CJ6-6">
          <mxGeometry relative="1" as="geometry">
            <mxPoint x="660" y="150" as="targetPoint" />
          </mxGeometry>
        </mxCell>
        <mxCell id="sNFZiSl1XPzose1U_CJ6-6" value="User enters: &#39;off&#39;" style="shape=parallelogram;perimeter=parallelogramPerimeter;whiteSpace=wrap;html=1;fixedSize=1;" vertex="1" parent="1">
          <mxGeometry x="550" y="210" width="150" height="60" as="geometry" />
        </mxCell>
        <mxCell id="sNFZiSl1XPzose1U_CJ6-9" value="&lt;div&gt;Maintence mode that &lt;br&gt;&lt;/div&gt;&lt;div&gt;ends exeuction&lt;/div&gt;&lt;div&gt;of coffee machine&lt;/div&gt;" style="rounded=1;whiteSpace=wrap;html=1;" vertex="1" parent="1">
          <mxGeometry x="620" y="90" width="120" height="60" as="geometry" />
        </mxCell>
        <mxCell id="sNFZiSl1XPzose1U_CJ6-12" value="&lt;div&gt;User enters: &#39;report&#39;&lt;/div&gt;&lt;div&gt;&lt;br&gt;&lt;/div&gt;" style="shape=parallelogram;perimeter=parallelogramPerimeter;whiteSpace=wrap;html=1;fixedSize=1;" vertex="1" parent="1">
          <mxGeometry x="360" y="210" width="160" height="60" as="geometry" />
        </mxCell>
        <mxCell id="sNFZiSl1XPzose1U_CJ6-13" style="edgeStyle=none;curved=1;rounded=0;orthogonalLoop=1;jettySize=auto;html=1;entryX=0.683;entryY=1;entryDx=0;entryDy=0;entryPerimeter=0;fontSize=12;startSize=8;endSize=8;" edge="1" parent="1" source="sNFZiSl1XPzose1U_CJ6-12" target="NCllpPrKkhF6VFkXS9k5-2">
          <mxGeometry relative="1" as="geometry" />
        </mxCell>
        <mxCell id="sNFZiSl1XPzose1U_CJ6-15" style="edgeStyle=none;curved=1;rounded=0;orthogonalLoop=1;jettySize=auto;html=1;entryX=0.75;entryY=1;entryDx=0;entryDy=0;fontSize=12;startSize=8;endSize=8;" edge="1" parent="1" source="sNFZiSl1XPzose1U_CJ6-14" target="sNFZiSl1XPzose1U_CJ6-12">
          <mxGeometry relative="1" as="geometry" />
        </mxCell>
        <mxCell id="sNFZiSl1XPzose1U_CJ6-14" value="Prints a report about the current resource levels of the machine" style="rounded=1;whiteSpace=wrap;html=1;" vertex="1" parent="1">
          <mxGeometry x="530" y="300" width="120" height="60" as="geometry" />
        </mxCell>
        <mxCell id="sNFZiSl1XPzose1U_CJ6-20" value="" style="edgeStyle=none;curved=1;rounded=0;orthogonalLoop=1;jettySize=auto;html=1;fontSize=12;startSize=8;endSize=8;" edge="1" parent="1" source="sNFZiSl1XPzose1U_CJ6-16" target="sNFZiSl1XPzose1U_CJ6-19">
          <mxGeometry relative="1" as="geometry" />
        </mxCell>
        <mxCell id="sNFZiSl1XPzose1U_CJ6-16" value="User enters a drink" style="rhombus;whiteSpace=wrap;html=1;" vertex="1" parent="1">
          <mxGeometry x="180" y="330" width="125" height="110" as="geometry" />
        </mxCell>
        <mxCell id="sNFZiSl1XPzose1U_CJ6-19" value="&lt;div&gt;Check machine resources:&lt;/div&gt;&lt;div&gt;&lt;br&gt;&lt;/div&gt;" style="rounded=1;whiteSpace=wrap;html=1;" vertex="1" parent="1">
          <mxGeometry x="185" y="470" width="120" height="60" as="geometry" />
        </mxCell>
        <mxCell id="sNFZiSl1XPzose1U_CJ6-23" value="" style="edgeStyle=none;curved=1;rounded=0;orthogonalLoop=1;jettySize=auto;html=1;fontSize=12;startSize=8;endSize=8;" edge="1" parent="1" source="sNFZiSl1XPzose1U_CJ6-22" target="sNFZiSl1XPzose1U_CJ6-19">
          <mxGeometry relative="1" as="geometry" />
        </mxCell>
        <mxCell id="sNFZiSl1XPzose1U_CJ6-31" value="" style="edgeStyle=none;curved=1;rounded=0;orthogonalLoop=1;jettySize=auto;html=1;fontSize=12;startSize=8;endSize=8;" edge="1" parent="1" source="sNFZiSl1XPzose1U_CJ6-22" target="sNFZiSl1XPzose1U_CJ6-30">
          <mxGeometry relative="1" as="geometry" />
        </mxCell>
        <mxCell id="sNFZiSl1XPzose1U_CJ6-22" value="&lt;div&gt;Enough resources&lt;/div&gt;&lt;div&gt;to make drink?&lt;/div&gt;" style="shape=parallelogram;perimeter=parallelogramPerimeter;whiteSpace=wrap;html=1;fixedSize=1;" vertex="1" parent="1">
          <mxGeometry x="100" y="590" width="140" height="60" as="geometry" />
        </mxCell>
        <mxCell id="sNFZiSl1XPzose1U_CJ6-25" style="edgeStyle=none;curved=1;rounded=0;orthogonalLoop=1;jettySize=auto;html=1;fontSize=12;startSize=8;endSize=8;" edge="1" parent="1" source="sNFZiSl1XPzose1U_CJ6-24" target="sNFZiSl1XPzose1U_CJ6-19">
          <mxGeometry relative="1" as="geometry" />
        </mxCell>
        <mxCell id="sNFZiSl1XPzose1U_CJ6-28" value="" style="edgeStyle=none;curved=1;rounded=0;orthogonalLoop=1;jettySize=auto;html=1;fontSize=12;startSize=8;endSize=8;" edge="1" parent="1" source="sNFZiSl1XPzose1U_CJ6-24" target="sNFZiSl1XPzose1U_CJ6-27">
          <mxGeometry relative="1" as="geometry" />
        </mxCell>
        <mxCell id="sNFZiSl1XPzose1U_CJ6-24" value="&lt;div&gt;Not enough resources&lt;/div&gt;&lt;div&gt;to make drink?&lt;/div&gt;" style="shape=parallelogram;perimeter=parallelogramPerimeter;whiteSpace=wrap;html=1;fixedSize=1;" vertex="1" parent="1">
          <mxGeometry x="280" y="590" width="150" height="60" as="geometry" />
        </mxCell>
        <mxCell id="sNFZiSl1XPzose1U_CJ6-27" value="&lt;div&gt;Sorry there is not enough x &lt;br&gt;&lt;/div&gt;&lt;div&gt;material to make that drink&lt;/div&gt;" style="rounded=1;whiteSpace=wrap;html=1;" vertex="1" parent="1">
          <mxGeometry x="450" y="585" width="160" height="65" as="geometry" />
        </mxCell>
        <mxCell id="sNFZiSl1XPzose1U_CJ6-29" style="edgeStyle=none;curved=1;rounded=0;orthogonalLoop=1;jettySize=auto;html=1;entryX=0.896;entryY=0.391;entryDx=0;entryDy=0;entryPerimeter=0;fontSize=12;startSize=8;endSize=8;" edge="1" parent="1" source="sNFZiSl1XPzose1U_CJ6-27" target="sNFZiSl1XPzose1U_CJ6-16">
          <mxGeometry relative="1" as="geometry">
            <Array as="points">
              <mxPoint x="500" y="360" />
            </Array>
          </mxGeometry>
        </mxCell>
        <mxCell id="sNFZiSl1XPzose1U_CJ6-33" value="" style="edgeStyle=none;curved=1;rounded=0;orthogonalLoop=1;jettySize=auto;html=1;fontSize=12;startSize=8;endSize=8;" edge="1" parent="1" source="sNFZiSl1XPzose1U_CJ6-30" target="sNFZiSl1XPzose1U_CJ6-32">
          <mxGeometry relative="1" as="geometry" />
        </mxCell>
        <mxCell id="sNFZiSl1XPzose1U_CJ6-30" value="&lt;div&gt;Ask user to enter coins&lt;/div&gt;&lt;div&gt;to purchase drink&lt;/div&gt;" style="whiteSpace=wrap;html=1;" vertex="1" parent="1">
          <mxGeometry x="110" y="700" width="120" height="60" as="geometry" />
        </mxCell>
        <mxCell id="sNFZiSl1XPzose1U_CJ6-35" value="" style="edgeStyle=none;curved=1;rounded=0;orthogonalLoop=1;jettySize=auto;html=1;fontSize=12;startSize=8;endSize=8;" edge="1" parent="1" source="sNFZiSl1XPzose1U_CJ6-32" target="sNFZiSl1XPzose1U_CJ6-34">
          <mxGeometry relative="1" as="geometry" />
        </mxCell>
        <mxCell id="sNFZiSl1XPzose1U_CJ6-37" value="" style="edgeStyle=none;curved=1;rounded=0;orthogonalLoop=1;jettySize=auto;html=1;fontSize=12;startSize=8;endSize=8;" edge="1" parent="1" source="sNFZiSl1XPzose1U_CJ6-32" target="sNFZiSl1XPzose1U_CJ6-36">
          <mxGeometry relative="1" as="geometry" />
        </mxCell>
        <mxCell id="sNFZiSl1XPzose1U_CJ6-32" value="Calculate monetary value of the users coins" style="whiteSpace=wrap;html=1;" vertex="1" parent="1">
          <mxGeometry x="270" y="700" width="120" height="60" as="geometry" />
        </mxCell>
        <mxCell id="sNFZiSl1XPzose1U_CJ6-43" value="" style="edgeStyle=none;curved=1;rounded=0;orthogonalLoop=1;jettySize=auto;html=1;fontSize=12;startSize=8;endSize=8;" edge="1" parent="1" source="sNFZiSl1XPzose1U_CJ6-34" target="sNFZiSl1XPzose1U_CJ6-42">
          <mxGeometry relative="1" as="geometry" />
        </mxCell>
        <mxCell id="sNFZiSl1XPzose1U_CJ6-34" value="Enough coins?" style="whiteSpace=wrap;html=1;" vertex="1" parent="1">
          <mxGeometry x="130" y="800" width="120" height="60" as="geometry" />
        </mxCell>
        <mxCell id="sNFZiSl1XPzose1U_CJ6-39" value="" style="edgeStyle=none;curved=1;rounded=0;orthogonalLoop=1;jettySize=auto;html=1;fontSize=12;startSize=8;endSize=8;" edge="1" parent="1" source="sNFZiSl1XPzose1U_CJ6-36" target="sNFZiSl1XPzose1U_CJ6-38">
          <mxGeometry relative="1" as="geometry" />
        </mxCell>
        <mxCell id="sNFZiSl1XPzose1U_CJ6-36" value="Not enough coins?" style="whiteSpace=wrap;html=1;" vertex="1" parent="1">
          <mxGeometry x="365" y="800" width="120" height="60" as="geometry" />
        </mxCell>
        <mxCell id="sNFZiSl1XPzose1U_CJ6-38" value="Refund user" style="whiteSpace=wrap;html=1;" vertex="1" parent="1">
          <mxGeometry x="510" y="800" width="120" height="60" as="geometry" />
        </mxCell>
        <mxCell id="sNFZiSl1XPzose1U_CJ6-40" style="edgeStyle=none;curved=1;rounded=0;orthogonalLoop=1;jettySize=auto;html=1;entryX=0.944;entryY=0.473;entryDx=0;entryDy=0;entryPerimeter=0;fontSize=12;startSize=8;endSize=8;" edge="1" parent="1" source="sNFZiSl1XPzose1U_CJ6-38" target="sNFZiSl1XPzose1U_CJ6-16">
          <mxGeometry relative="1" as="geometry">
            <Array as="points">
              <mxPoint x="820" y="420" />
            </Array>
          </mxGeometry>
        </mxCell>
        <mxCell id="sNFZiSl1XPzose1U_CJ6-48" value="" style="edgeStyle=none;curved=1;rounded=0;orthogonalLoop=1;jettySize=auto;html=1;fontSize=12;startSize=8;endSize=8;" edge="1" parent="1" source="sNFZiSl1XPzose1U_CJ6-42" target="sNFZiSl1XPzose1U_CJ6-47">
          <mxGeometry relative="1" as="geometry" />
        </mxCell>
        <mxCell id="sNFZiSl1XPzose1U_CJ6-42" value="User inserted enough money?" style="whiteSpace=wrap;html=1;" vertex="1" parent="1">
          <mxGeometry x="60" y="890" width="120" height="60" as="geometry" />
        </mxCell>
        <mxCell id="sNFZiSl1XPzose1U_CJ6-50" value="" style="edgeStyle=none;curved=1;rounded=0;orthogonalLoop=1;jettySize=auto;html=1;fontSize=12;startSize=8;endSize=8;" edge="1" parent="1" source="sNFZiSl1XPzose1U_CJ6-44" target="sNFZiSl1XPzose1U_CJ6-49">
          <mxGeometry relative="1" as="geometry" />
        </mxCell>
        <mxCell id="sNFZiSl1XPzose1U_CJ6-44" value="&lt;div&gt;User inserted too much money?&lt;/div&gt;" style="whiteSpace=wrap;html=1;" vertex="1" parent="1">
          <mxGeometry x="230" y="890" width="120" height="60" as="geometry" />
        </mxCell>
        <mxCell id="sNFZiSl1XPzose1U_CJ6-46" style="edgeStyle=none;curved=1;rounded=0;orthogonalLoop=1;jettySize=auto;html=1;entryX=0.425;entryY=0;entryDx=0;entryDy=0;entryPerimeter=0;fontSize=12;startSize=8;endSize=8;" edge="1" parent="1" source="sNFZiSl1XPzose1U_CJ6-34" target="sNFZiSl1XPzose1U_CJ6-44">
          <mxGeometry relative="1" as="geometry" />
        </mxCell>
        <mxCell id="sNFZiSl1XPzose1U_CJ6-47" value="&lt;div&gt;Make coffee and deplete machine resources&lt;/div&gt;" style="whiteSpace=wrap;html=1;" vertex="1" parent="1">
          <mxGeometry x="60" y="990" width="120" height="60" as="geometry" />
        </mxCell>
        <mxCell id="sNFZiSl1XPzose1U_CJ6-49" value="Refund user excess money and make coffee and deplete resources" style="whiteSpace=wrap;html=1;" vertex="1" parent="1">
          <mxGeometry x="245" y="990" width="120" height="60" as="geometry" />
        </mxCell>
      </root>
    </mxGraphModel>
  </diagram>
</mxfile>
